HIERARCHY
ROOT Hips
{
	OFFSET 0.00000 0.00000 0.00000
	CHANNELS 6 Xposition Yposition Zposition Zrotation Yrotation Xrotation 
	JOINT LHipJoint
	{
		OFFSET 0 0 0
		CHANNELS 3 Zrotation Yrotation Xrotation
		JOINT LeftHip
		{
			OFFSET 1.53139 -1.83434 0.76626
			CHANNELS 3 Zrotation Yrotation Xrotation
			JOINT LeftKnee
			{
				OFFSET 2.56112 -7.03663 0.00000
				CHANNELS 3 Zrotation Yrotation Xrotation
				JOINT LeftAnkle
				{
					OFFSET 2.59983 -7.14299 0.00000
					CHANNELS 3 Zrotation Yrotation Xrotation
					JOINT LeftToe
					{
						OFFSET 0.13742 -0.37757 2.00054
						CHANNELS 3 Zrotation Yrotation Xrotation
						End Site
						{
							OFFSET 0.00000 -0.00000 1.02897
						}
					}
				}
			}
		}
	}
	JOINT RHipJoint
	{
		OFFSET 0 0 0
		CHANNELS 3 Zrotation Yrotation Xrotation
		JOINT RightHip
		{
			OFFSET -1.40122 -1.83435 0.76627
			CHANNELS 3 Zrotation Yrotation Xrotation
			JOINT RightKnee
			{
				OFFSET -2.54052 -6.98003 0.00000
				CHANNELS 3 Zrotation Yrotation Xrotation
				JOINT RightAnkle
				{
					OFFSET -2.63179 -7.23079 0.00000
					CHANNELS 3 Zrotation Yrotation Xrotation
					JOINT RightToe
					{
						OFFSET -0.24131 -0.66299 2.03908
						CHANNELS 3 Zrotation Yrotation Xrotation
						End Site
						{
							OFFSET -0.00000 -0.00000 1.07391
						}
					}
				}
			}
		}
	}
	JOINT lowerback
	{
		OFFSET 0 0 0
		CHANNELS 3 Zrotation Yrotation Xrotation
		JOINT Chest
		{
			OFFSET 0.01174 2.10302 -0.29778
			CHANNELS 3 Zrotation Yrotation Xrotation
			JOINT Chest2
			{
				OFFSET 0.00772 2.13227 -0.01247
				CHANNELS 3 Zrotation Yrotation Xrotation
				JOINT lowerneck
				{
					OFFSET 0 0 0
					CHANNELS 3 Zrotation Yrotation Xrotation
					JOINT Neck
					{
						OFFSET -0.09219 1.60848 0.31481
						CHANNELS 3 Zrotation Yrotation Xrotation
						JOINT Head
						{
							OFFSET 0.13974 1.65456 -0.31134
							CHANNELS 3 Zrotation Yrotation Xrotation
							End Site
							{
								OFFSET 0.04742 1.69515 -0.14578
							}
						}
					}
				}
				JOINT LeftCollar
				{
					OFFSET 0 0 0
					CHANNELS 3 Zrotation Yrotation Xrotation
					JOINT LeftShoulder
					{
						OFFSET 3.24909 1.02882 -0.23993
CHANNELS 3 Zrotation Xrotation Yrotation
						JOINT LeftElbow
						{
OFFSET 0 -5.329550 -0.000000
CHANNELS 3 Zrotation Xrotation Yrotation
							JOINT LeftWrist
							{
OFFSET 0 -3.692320 -0.000000
CHANNELS 3 Zrotation Xrotation Yrotation
								JOINT lhand
								{
									OFFSET 0 0 0
CHANNELS 3 Zrotation Xrotation Yrotation
									JOINT LFingers
									{
OFFSET 0 -0.536600 -0.000000
CHANNELS 3 Zrotation Xrotation Yrotation
										End Site
										{
OFFSET 0 -0.432620 -0.000000
										}
									}
								}
								JOINT LThumb
								{
OFFSET 0 0.000000 0.000000
CHANNELS 3 Zrotation Xrotation Yrotation
									End Site
									{
OFFSET 0 -0.439220 0.439220
									}
								}
							}
						}
					}
				}
				JOINT RightCollar
				{
					OFFSET 0 0 0
					CHANNELS 3 Zrotation Yrotation Xrotation
					JOINT RightShoulder
					{
						OFFSET -3.21387 0.93002 -0.34594
CHANNELS 3 Zrotation Xrotation Yrotation
						JOINT RightElbow
						{
OFFSET 0 -5.234310 0.000000
CHANNELS 3 Zrotation Xrotation Yrotation
							JOINT RightWrist
							{
OFFSET 0 -3.553010 -0.000000
CHANNELS 3 Zrotation Xrotation Yrotation
								JOINT rhand
								{
									OFFSET 0 0 0
CHANNELS 3 Zrotation Xrotation Yrotation
									JOINT RFingers
									{
OFFSET 0 -0.772520 -0.000000
CHANNELS 3 Zrotation Xrotation Yrotation
										End Site
										{
OFFSET 0 -0.622830 -0.000000
										}
									}
								}
								JOINT RThumb
								{
OFFSET 0 0.000000 0.000000
CHANNELS 3 Zrotation Xrotation Yrotation
									End Site
									{
OFFSET 0 -0.632340 0.632340
									}
								}
							}
						}
					}
				}
			}
		}
	}
}
MOTION
Frames: 9
Frame Time: 0.008333333333333333
2.920874 17.570528 6.476313 0.931702 26.903260 9.419969 0.000000 0.000000 0.000000 -18.441784 -10.131393 -31.497323 3.696591 11.744858 34.835812 0.026556 -8.377772 -6.386426 0.036376 -1.231093 -3.384930 0.000000 0.000000 0.000000 13.527453 -5.869114 -35.867758 -4.663687 -12.994226 39.347783 -0.385966 -2.305005 -12.806638 -0.007784 0.564432 -1.551044 1.357729 2.843455 28.506960 1.869335 4.341815 8.258030 -0.152794 2.145111 -6.490544 -14.593084 -10.634280 -17.836110 12.144139 -13.545283 19.830562 4.614143 -5.966955 11.263743 0.000000 0.000000 0.000000 3.470597 -10.634334 -65.364474 52.328159 -53.892357 28.044434 28.930879 5.151517 -23.114539 0.000000 0.000000 0.000000 -7.125000 0.000000 0.000000 -0.180704 55.977762 0.050034 0.000000 0.000000 0.000000 -8.274449 -24.561370 50.174048 -29.846901 -40.759398 -11.310408 -51.103591 7.726745 -6.958171 0.000000 0.000000 0.000000 7.125000 0.000000 0.000000 -17.120221 19.211396 -11.032587
2.966345 17.616652 6.528264 0.870488 26.908515 8.997340 0.000000 0.000000 0.000000 -18.599479 -10.031684 -30.168670 3.480996 11.435024 33.762340 0.029829 -8.065141 -6.250357 0.032025 -1.154825 -3.174898 0.000000 0.000000 0.000000 13.533409 -5.904793 -34.421641 -4.400813 -12.674522 38.163436 -0.360559 -2.668847 -12.640583 -0.003576 0.385989 -1.060527 1.070992 2.800879 27.517771 1.834996 4.191760 7.863616 0.054729 2.071647 -6.473743 -14.731212 -10.595336 -17.636944 12.380751 -13.546154 19.827498 4.731355 -5.961024 11.256630 0.000000 0.000000 0.000000 3.438247 -9.944460 -64.871219 52.659069 -54.012962 28.312084 28.936425 4.554595 -24.145609 0.000000 0.000000 0.000000 -7.125000 0.000000 0.000000 -0.458621 57.102617 0.133331 0.000000 0.000000 0.000000 -8.341928 -22.736863 51.018628 -31.247392 -41.935041 -12.236219 -50.533194 5.248351 -7.882625 0.000000 0.000000 0.000000 7.125000 0.000000 0.000000 -16.509343 17.967311 -11.078766
3.005125 17.671089 6.590012 0.632411 26.685335 8.299333 0.000000 0.000000 0.000000 -18.594912 -9.652215 -28.643557 3.286478 11.144823 32.769903 0.043325 -7.723069 -6.303593 0.038440 -1.264399 -3.476592 0.000000 0.000000 0.000000 13.675913 -5.614358 -32.673083 -4.141869 -12.346574 36.969730 -0.335498 -3.232623 -12.616090 -0.007887 0.571264 -1.569697 0.930126 2.910626 26.536471 1.783834 4.272900 7.770501 0.096874 2.115984 -6.106177 -14.760709 -10.728239 -17.892692 12.665730 -13.772963 19.816933 4.789348 -6.025451 11.364600 0.000000 0.000000 0.000000 3.541651 -9.801709 -64.721241 53.110608 -54.175503 28.677715 29.671510 3.846112 -25.172818 0.000000 0.000000 0.000000 -7.125000 0.000000 0.000000 0.066932 58.389207 -0.022330 0.000000 0.000000 0.000000 -8.437557 -21.428903 51.199195 -32.703385 -43.099773 -13.219319 -49.374257 4.495457 -8.293360 0.000000 0.000000 0.000000 7.125000 0.000000 0.000000 -15.650817 17.623246 -10.581757
3.046001 17.715232 6.648119 0.454320 26.549706 7.685841 0.000000 0.000000 0.000000 -18.624710 -9.440975 -27.195201 3.101488 10.856976 31.799752 0.056160 -7.314196 -6.319856 0.045024 -1.369400 -3.765975 0.000000 0.000000 0.000000 13.751087 -5.350989 -31.063930 -3.899187 -12.024311 35.818963 -0.306780 -3.802385 -12.568032 -0.009810 0.634792 -1.744366 0.915781 3.058558 25.709870 1.767917 4.445071 7.518593 0.067731 2.199054 -5.979004 -15.001270 -10.916685 -17.876679 12.865820 -14.043448 19.922369 4.851330 -6.142829 11.482119 0.000000 0.000000 0.000000 3.486231 -9.561194 -64.774128 53.199781 -54.207214 28.750087 28.939489 2.322726 -25.250020 0.000000 0.000000 0.000000 -7.125000 0.000000 0.000000 -0.793903 58.299349 0.258279 0.000000 0.000000 0.000000 -8.749694 -19.914905 50.862164 -34.256351 -44.269837 -14.292999 -47.863081 5.005418 -8.071742 0.000000 0.000000 0.000000 7.125000 0.000000 0.000000 -14.707668 18.254309 -9.686241
3.084601 17.751785 6.706446 0.446712 26.514096 7.270743 0.000000 0.000000 0.000000 -18.790059 -9.389672 -25.880779 2.926696 10.574818 30.859680 0.064197 -6.939432 -6.276400 0.041886 -1.320432 -3.631005 0.000000 0.000000 0.000000 13.681787 -5.206172 -29.645190 -3.685055 -11.728496 34.778937 -0.276061 -4.317413 -12.470620 -0.003832 0.389066 -1.069100 0.644363 3.042947 24.931103 1.641547 4.340259 6.979286 0.136034 2.143683 -6.196645 -15.102868 -10.826503 -17.352535 13.102972 -14.031778 19.964940 4.979049 -6.141669 11.426305 0.000000 0.000000 0.000000 3.604403 -8.747959 -64.334805 53.503998 -54.314398 28.997050 28.883391 1.162392 -25.683969 0.000000 0.000000 0.000000 -7.125000 0.000000 0.000000 -1.002132 58.754501 0.337468 0.000000 0.000000 0.000000 -8.761097 -18.081941 51.271676 -35.818326 -45.384242 -15.394092 -46.498732 4.086736 -8.295391 0.000000 0.000000 0.000000 7.125000 0.000000 0.000000 -13.750396 18.209534 -9.028295
3.129323 17.788863 6.765185 0.477334 26.453666 6.949467 0.000000 0.000000 0.000000 -18.997475 -9.370421 -24.633980 2.763339 10.301498 29.958917 0.072671 -6.617416 -6.284055 0.035778 -1.220492 -3.355841 0.000000 0.000000 0.000000 13.581945 -5.100814 -28.328324 -3.484773 -11.441143 33.782767 -0.255008 -4.731747 -12.467712 -0.002617 0.332759 -0.914428 0.337029 2.960836 24.016263 1.453667 4.138172 6.486704 0.194318 2.044786 -6.284887 -15.115697 -10.736608 -16.954240 13.416190 -14.048008 19.990898 5.111498 -6.134076 11.392476 0.000000 0.000000 0.000000 3.843771 -7.912721 -63.748620 54.106050 -54.522907 29.486705 29.014301 0.107364 -27.080661 0.000000 0.000000 0.000000 -7.125000 0.000000 0.000000 -1.350446 60.288507 0.503855 0.000000 0.000000 0.000000 -8.663047 -16.460002 51.856554 -37.424589 -46.466907 -16.547508 -45.025889 2.572864 -8.805082 0.000000 0.000000 0.000000 7.125000 0.000000 0.000000 -12.657618 17.790459 -8.393149
3.182862 17.828259 6.830819 0.310728 26.052272 6.247022 0.000000 0.000000 0.000000 -19.087618 -8.909910 -23.136524 2.613558 10.040939 29.109862 0.085496 -6.322824 -6.406466 0.036868 -1.237404 -3.402356 0.000000 0.000000 0.000000 13.651593 -4.913768 -26.633851 -3.281706 -11.136821 32.743728 -0.245270 -4.950602 -12.495133 -0.002082 0.284437 -0.781592 0.034036 2.983602 23.173553 1.360187 4.083711 6.320125 0.316313 2.022201 -6.053031 -14.929660 -10.700605 -17.052039 13.557145 -14.091105 20.086016 5.125835 -6.119827 11.451802 0.000000 0.000000 0.000000 3.992541 -7.405777 -62.998327 54.674781 -54.715151 29.950394 28.836493 -2.505907 -25.935066 0.000000 0.000000 0.000000 -7.125000 0.000000 0.000000 -1.145220 59.014214 0.390965 0.000000 0.000000 0.000000 -8.705565 -15.281310 52.508898 -39.062960 -47.501373 -17.746284 -43.351091 1.659389 -8.898167 0.000000 0.000000 0.000000 7.125000 0.000000 0.000000 -11.510979 17.967884 -7.554158
3.233152 17.861744 6.892155 -0.039229 25.729065 5.412153 0.000000 0.000000 0.000000 -18.975804 -8.580666 -21.579539 2.469012 9.780992 28.270703 0.098698 -5.913182 -6.501140 0.031073 -1.138542 -3.130195 0.000000 0.000000 0.000000 13.894830 -4.665741 -24.872787 -3.078798 -10.821005 31.679072 -0.227481 -5.290778 -12.504715 -0.000517 0.137218 -0.377065 0.024091 2.948177 22.614497 1.303905 4.028074 6.020756 0.294141 1.993709 -6.090339 -14.764532 -10.641863 -17.181373 13.491467 -14.068322 20.458241 5.083519 -6.093214 11.592993 0.000000 0.000000 0.000000 4.083115 -6.845720 -62.383416 55.095570 -54.854605 30.294084 28.355242 -4.983627 -25.453932 0.000000 0.000000 0.000000 -7.125000 0.000000 0.000000 -1.526874 58.381359 0.500488 0.000000 0.000000 0.000000 -8.689710 -13.949889 53.119424 -40.561911 -48.397239 -18.858940 -42.088765 0.976285 -8.962494 0.000000 0.000000 0.000000 7.125000 0.000000 0.000000 -10.642961 18.099474 -6.930780
3.281463 17.892316 6.959881 -0.153141 25.538744 4.648175 0.000000 0.000000 0.000000 -19.089013 -8.296140 -19.961919 2.329412 9.520525 27.437943 0.111208 -5.525624 -6.608627 0.034161 -1.192696 -3.279147 0.000000 0.000000 0.000000 13.919725 -4.513021 -23.068712 -2.883774 -10.503937 30.625149 -0.207206 -5.654880 -12.507039 -0.000161 -0.036940 0.101412 -0.072311 2.896067 22.128033 1.190645 3.929116 5.708384 0.267241 1.944912 -6.177663 -14.819428 -10.627560 -17.204769 13.645743 -14.111752 20.742957 5.149205 -6.095611 11.731562 0.000000 0.000000 0.000000 4.268272 -6.271756 -62.067993 55.675824 -55.042787 30.769166 28.096534 -6.469424 -27.404172 0.000000 0.000000 0.000000 -7.125000 0.000000 0.000000 -2.565528 60.403063 0.969094 0.000000 0.000000 0.000000 -8.698642 -12.597757 53.501107 -42.096023 -49.262039 -20.013821 -40.519010 0.101724 -9.445155 0.000000 0.000000 0.000000 7.125000 0.000000 0.000000 -9.489896 17.736027 -6.233841
